<svg id="SvgjsSvg1001" width="1011.7125305175782" height="521.0124969482422" xmlns="http://www.w3.org/2000/svg" version="1.1" xmlns:xlink="http://www.w3.org/1999/xlink" xmlns:svgjs="http://svgjs.com/svgjs"><defs id="SvgjsDefs1002"><marker id="SvgjsMarker1092" markerWidth="14" markerHeight="10" refX="10" refY="5" viewBox="0 0 14 10" orient="auto" markerUnits="userSpaceOnUse" stroke-dasharray="0,0"><path id="SvgjsPath1093" d="M0,0 L14,5 L0,10 L0,0" fill="#323232" stroke="#323232" stroke-width="1"></path></marker><marker id="SvgjsMarker1100" markerWidth="14" markerHeight="10" refX="10" refY="5" viewBox="0 0 14 10" orient="auto" markerUnits="userSpaceOnUse" stroke-dasharray="0,0"><path id="SvgjsPath1101" d="M0,0 L14,5 L0,10 L0,0" fill="#323232" stroke="#323232" stroke-width="1"></path></marker><marker id="SvgjsMarker1116" markerWidth="14" markerHeight="10" refX="10" refY="5" viewBox="0 0 14 10" orient="auto" markerUnits="userSpaceOnUse" stroke-dasharray="0,0"><path id="SvgjsPath1117" d="M0,0 L14,5 L0,10 L0,0" fill="#323232" stroke="#323232" stroke-width="1"></path></marker><marker id="SvgjsMarker1120" markerWidth="14" markerHeight="10" refX="10" refY="5" viewBox="0 0 14 10" orient="auto" markerUnits="userSpaceOnUse" stroke-dasharray="0,0"><path id="SvgjsPath1121" d="M0,0 L14,5 L0,10 L0,0" fill="#323232" stroke="#323232" stroke-width="1"></path></marker><marker id="SvgjsMarker1128" markerWidth="14" markerHeight="10" refX="10" refY="5" viewBox="0 0 14 10" orient="auto" markerUnits="userSpaceOnUse" stroke-dasharray="0,0"><path id="SvgjsPath1129" d="M0,0 L14,5 L0,10 L0,0" fill="#323232" stroke="#323232" stroke-width="1"></path></marker><marker id="SvgjsMarker1136" markerWidth="14" markerHeight="10" refX="10" refY="5" viewBox="0 0 14 10" orient="auto" markerUnits="userSpaceOnUse" stroke-dasharray="0,0"><path id="SvgjsPath1137" d="M0,0 L14,5 L0,10 L0,0" fill="#323232" stroke="#323232" stroke-width="1"></path></marker><marker id="SvgjsMarker1144" markerWidth="14" markerHeight="10" refX="10" refY="5" viewBox="0 0 14 10" orient="auto" markerUnits="userSpaceOnUse" stroke-dasharray="0,0"><path id="SvgjsPath1145" d="M0,0 L14,5 L0,10 L0,0" fill="#323232" stroke="#323232" stroke-width="1"></path></marker></defs><g id="SvgjsG1008" transform="translate(25.012481689453125,81.01249694824219)"><path id="SvgjsPath1009" d="M 0 4Q 0 0 4 0L 235 0Q 239 0 239 4L 239 411Q 239 415 235 415L 4 415Q 0 415 0 411Z" stroke="rgba(33,41,48,1)" stroke-width="2" fill-opacity="1" fill="#ffffff"></path><g id="SvgjsG1010"><text id="SvgjsText1011" font-family="微软雅黑" text-anchor="middle" font-size="13px" width="219px" fill="#323232" font-weight="400" align="middle" lineHeight="125%" anchor="middle" family="微软雅黑" size="13px" weight="400" font-style="" opacity="1" y="196.875" transform="rotate(0)"></text></g></g><g id="SvgjsG1012" transform="translate(32.012481689453125,92.01249694824219)"><path id="SvgjsPath1013" d="M 0 0L 225 0L 225 48L 0 48Z" stroke="none" fill="none"></path><g id="SvgjsG1014"><text id="SvgjsText1015" font-family="微软雅黑" text-anchor="middle" font-size="18px" width="225px" fill="#323232" font-weight="400" align="middle" lineHeight="125%" anchor="middle" family="微软雅黑" size="18px" weight="400" font-style="" opacity="1" y="8.25" transform="rotate(0)"><tspan id="SvgjsTspan1016" dy="22" x="112.5"><tspan id="SvgjsTspan1017" style="text-decoration:;fill: rgb(211, 47, 47);font-weight: bold;">call stack (函数调用堆栈)</tspan></tspan></text></g></g><g id="SvgjsG1018" transform="translate(67.01248168945312,157.0124969482422)"><path id="SvgjsPath1019" d="M 0 0L 163 0L 163 36L 0 36Z" stroke="none" fill="none"></path><g id="SvgjsG1020"><text id="SvgjsText1021" font-family="微软雅黑" text-anchor="middle" font-size="14px" width="163px" fill="#323232" font-weight="400" align="middle" lineHeight="125%" anchor="middle" family="微软雅黑" size="14px" weight="400" font-style="" opacity="1" y="6.25" transform="rotate(0)"><tspan id="SvgjsTspan1022" dy="17" x="81.5"><tspan id="SvgjsTspan1023" style="text-decoration:;">同步任务</tspan></tspan></text></g></g><g id="SvgjsG1024" transform="translate(61.512481689453125,227.0124969482422)"><path id="SvgjsPath1025" d="M 0 4Q 0 0 4 0L 170 0Q 174 0 174 4L 174 39Q 174 43 170 43L 4 43Q 0 43 0 39Z" stroke="rgba(33,41,48,1)" stroke-width="2" fill-opacity="1" fill="#ffffff"></path><g id="SvgjsG1026"><text id="SvgjsText1027" font-family="微软雅黑" text-anchor="middle" font-size="13px" width="154px" fill="#323232" font-weight="400" align="middle" lineHeight="125%" anchor="middle" family="微软雅黑" size="13px" weight="400" font-style="" opacity="1" y="10.875" transform="rotate(0)"><tspan id="SvgjsTspan1028" dy="16" x="87"><tspan id="SvgjsTspan1029" style="text-decoration:;">console.log(start)...</tspan></tspan></text></g></g><g id="SvgjsG1030" transform="translate(61.512481689453125,292.0124969482422)"><path id="SvgjsPath1031" d="M 0 4Q 0 0 4 0L 170 0Q 174 0 174 4L 174 39Q 174 43 170 43L 4 43Q 0 43 0 39Z" stroke="rgba(33,41,48,1)" stroke-width="2" fill-opacity="1" fill="#ffffff"></path><g id="SvgjsG1032"><text id="SvgjsText1033" font-family="微软雅黑" text-anchor="middle" font-size="13px" width="154px" fill="#323232" font-weight="400" align="middle" lineHeight="125%" anchor="middle" family="微软雅黑" size="13px" weight="400" font-style="" opacity="1" y="10.875" transform="rotate(0)"><tspan id="SvgjsTspan1034" dy="16" x="87"><tspan id="SvgjsTspan1035" style="text-decoration:;">setTimeout(cb1)</tspan></tspan></text></g></g><g id="SvgjsG1036" transform="translate(61.512481689453125,357.0124969482422)"><path id="SvgjsPath1037" d="M 0 4Q 0 0 4 0L 170 0Q 174 0 174 4L 174 39Q 174 43 170 43L 4 43Q 0 43 0 39Z" stroke="rgba(33,41,48,1)" stroke-width="2" fill-opacity="1" fill="#ffffff"></path><g id="SvgjsG1038"><text id="SvgjsText1039" font-family="微软雅黑" text-anchor="middle" font-size="13px" width="154px" fill="#323232" font-weight="400" align="middle" lineHeight="125%" anchor="middle" family="微软雅黑" size="13px" weight="400" font-style="" opacity="1" y="10.875" transform="rotate(0)"><tspan id="SvgjsTspan1040" dy="16" x="87"><tspan id="SvgjsTspan1041" style="text-decoration:;">queueMicrotask(cb2)</tspan></tspan></text></g></g><g id="SvgjsG1042" transform="translate(61.512481689453125,422.0124969482422)"><path id="SvgjsPath1043" d="M 0 4Q 0 0 4 0L 170 0Q 174 0 174 4L 174 39Q 174 43 170 43L 4 43Q 0 43 0 39Z" stroke="rgba(33,41,48,1)" stroke-width="2" fill-opacity="1" fill="#ffffff"></path><g id="SvgjsG1044"><text id="SvgjsText1045" font-family="微软雅黑" text-anchor="middle" font-size="13px" width="154px" fill="#323232" font-weight="400" align="middle" lineHeight="125%" anchor="middle" family="微软雅黑" size="13px" weight="400" font-style="" opacity="1" y="10.875" transform="rotate(0)"><tspan id="SvgjsTspan1046" dy="16" x="87"><tspan id="SvgjsTspan1047" style="text-decoration:;">console.log(end)...</tspan></tspan></text></g></g><g id="SvgjsG1048" transform="translate(474.0124816894531,81.01249694824219)"><path id="SvgjsPath1049" d="M 0 4Q 0 0 4 0L 125 0Q 129 0 129 4L 129 200Q 129 204 125 204L 4 204Q 0 204 0 200Z" stroke="rgba(33,41,48,1)" stroke-width="2" fill-opacity="1" fill="#ffffff"></path><g id="SvgjsG1050"><text id="SvgjsText1051" font-family="微软雅黑" text-anchor="middle" font-size="13px" width="109px" fill="#323232" font-weight="400" align="middle" lineHeight="125%" anchor="middle" family="微软雅黑" size="13px" weight="400" font-style="" opacity="1" y="91.375" transform="rotate(0)"></text></g></g><g id="SvgjsG1052" transform="translate(492.0124816894531,88.01249694824219)"><path id="SvgjsPath1053" d="M 0 0L 100 0L 100 40L 0 40Z" stroke="none" fill="none"></path><g id="SvgjsG1054"><text id="SvgjsText1055" font-family="微软雅黑" text-anchor="middle" font-size="13px" width="100px" fill="#323232" font-weight="400" align="middle" lineHeight="125%" anchor="middle" family="微软雅黑" size="13px" weight="400" font-style="" opacity="1" y="9.375" transform="rotate(0)"><tspan id="SvgjsTspan1056" dy="16" x="50"><tspan id="SvgjsTspan1057" style="text-decoration:;fill: rgb(183, 28, 28);font-weight: bold;">微任务队列</tspan></tspan></text></g></g><g id="SvgjsG1058" transform="translate(854.0124816894531,81.01249694824219)"><path id="SvgjsPath1059" d="M 0 4Q 0 0 4 0L 125 0Q 129 0 129 4L 129 200Q 129 204 125 204L 4 204Q 0 204 0 200Z" stroke="rgba(33,41,48,1)" stroke-width="2" fill-opacity="1" fill="#ffffff"></path><g id="SvgjsG1060"><text id="SvgjsText1061" font-family="微软雅黑" text-anchor="middle" font-size="13px" width="109px" fill="#323232" font-weight="400" align="middle" lineHeight="125%" anchor="middle" family="微软雅黑" size="13px" weight="400" font-style="" opacity="1" y="91.375" transform="rotate(0)"></text></g></g><g id="SvgjsG1062" transform="translate(872.0124816894531,88.01249694824219)"><path id="SvgjsPath1063" d="M 0 0L 100 0L 100 40L 0 40Z" stroke="none" fill="none"></path><g id="SvgjsG1064"><text id="SvgjsText1065" font-family="微软雅黑" text-anchor="middle" font-size="13px" width="100px" fill="#323232" font-weight="400" align="middle" lineHeight="125%" anchor="middle" family="微软雅黑" size="13px" weight="400" font-style="" opacity="1" y="9.375" transform="rotate(0)"><tspan id="SvgjsTspan1066" dy="16" x="50"><tspan id="SvgjsTspan1067" style="text-decoration:;fill: rgb(183, 28, 28);font-weight: bold;">Web APIs</tspan></tspan></text></g></g><g id="SvgjsG1068" transform="translate(874.0124816894531,163.0124969482422)"><path id="SvgjsPath1069" d="M 0 4Q 0 0 4 0L 92 0Q 96 0 96 4L 96 36Q 96 40 92 40L 4 40Q 0 40 0 36Z" stroke="rgba(33,41,48,1)" stroke-width="2" fill-opacity="1" fill="#ffffff"></path><g id="SvgjsG1070"><text id="SvgjsText1071" font-family="微软雅黑" text-anchor="middle" font-size="13px" width="76px" fill="#323232" font-weight="400" align="middle" lineHeight="125%" anchor="middle" family="微软雅黑" size="13px" weight="400" font-style="" opacity="1" y="9.375" transform="rotate(0)"><tspan id="SvgjsTspan1072" dy="16" x="48"><tspan id="SvgjsTspan1073" style="text-decoration:;">cb1</tspan></tspan></text></g></g><g id="SvgjsG1074" transform="translate(494.0124816894531,163.0124969482422)"><path id="SvgjsPath1075" d="M 0 4Q 0 0 4 0L 92 0Q 96 0 96 4L 96 36Q 96 40 92 40L 4 40Q 0 40 0 36Z" stroke="rgba(33,41,48,1)" stroke-width="2" fill-opacity="1" fill="#ffffff"></path><g id="SvgjsG1076"><text id="SvgjsText1077" font-family="微软雅黑" text-anchor="middle" font-size="13px" width="76px" fill="#323232" font-weight="400" align="middle" lineHeight="125%" anchor="middle" family="微软雅黑" size="13px" weight="400" font-style="" opacity="1" y="9.375" transform="rotate(0)"><tspan id="SvgjsTspan1078" dy="16" x="48"><tspan id="SvgjsTspan1079" style="text-decoration:;">cb2</tspan></tspan></text></g></g><g id="SvgjsG1080" transform="translate(712.5124816894531,137.9124984741211)"><path id="SvgjsPath1081" d="M 0 45.099998474121094C 0 -15.033332824707031 91.5 -15.033332824707031 91.5 45.099998474121094C 91.5 105.23332977294922 0 105.23332977294922 0 45.099998474121094Z" stroke="rgba(33,41,48,1)" stroke-width="2" fill-opacity="1" fill="#ffffff"></path><g id="SvgjsG1082"><text id="SvgjsText1083" font-family="微软雅黑" text-anchor="middle" font-size="13px" width="72px" fill="#323232" font-weight="400" align="middle" lineHeight="125%" anchor="middle" family="微软雅黑" size="13px" weight="400" font-style="" opacity="1" y="34.474998474121094" transform="rotate(0)"><tspan id="SvgjsTspan1084" dy="16" x="46"><tspan id="SvgjsTspan1085" style="text-decoration:;">DOM渲染</tspan></tspan></text></g></g><g id="SvgjsG1086" transform="translate(438.0124816894531,413.6124954223633)"><path id="SvgjsPath1087" d="M 0 4Q 0 0 4 0L 541 0Q 545 0 545 4L 545 73.4000015258789Q 545 77.4000015258789 541 77.4000015258789L 4 77.4000015258789Q 0 77.4000015258789 0 73.4000015258789Z" stroke="rgba(33,41,48,1)" stroke-width="2" fill-opacity="1" fill="#ffffff"></path><g id="SvgjsG1088"><text id="SvgjsText1089" font-family="微软雅黑" text-anchor="middle" font-size="13px" width="525px" fill="#323232" font-weight="400" align="middle" lineHeight="125%" anchor="middle" family="微软雅黑" size="13px" weight="400" font-style="" opacity="1" y="28.075000762939453" transform="rotate(0)"></text></g></g><g id="SvgjsG1090"><path id="SvgjsPath1091" d="M144.51248168945312 80.01249694824219L144.51248168945312 50.01249694824219L538.5124816894531 50.01249694824219L538.5124816894531 77.4124969482422" stroke-dasharray="8,5" stroke="#323232" stroke-width="2" fill="none" marker-end="url(#SvgjsMarker1092)"></path><rect id="SvgjsRect1094" width="156" height="16" x="262.2124816894531" y="42.01249694824219" fill="#ffffff"></rect><text id="SvgjsText1095" font-family="微软雅黑" text-anchor="middle" font-size="13px" width="156px" fill="#323232" font-weight="400" align="top" lineHeight="16px" anchor="middle" family="微软雅黑" size="13px" weight="400" font-style="" opacity="1" y="39.38749694824219" transform="rotate(0)"><tspan id="SvgjsTspan1096" dy="16" x="340.2124816894531"><tspan id="SvgjsTspan1097" style="text-decoration:;">微任务回调推入微任务队列</tspan></tspan></text></g><g id="SvgjsG1098"><path id="SvgjsPath1099" d="M144.51248168945312 80.01249694824219L144.51248168945312 25.012496948242188L918.5124816894531 25.012496948242188L918.5124816894531 77.4124969482422" stroke-dasharray="8,5" stroke="#323232" stroke-width="2" fill="none" marker-end="url(#SvgjsMarker1100)"></path><rect id="SvgjsRect1102" width="206" height="16" x="427.21248168945306" y="17.012496948242188" fill="#ffffff"></rect><text id="SvgjsText1103" font-family="微软雅黑" text-anchor="middle" font-size="13px" width="206px" fill="#323232" font-weight="400" align="top" lineHeight="16px" anchor="middle" family="微软雅黑" size="13px" weight="400" font-style="" opacity="1" y="14.387496948242188" transform="rotate(0)"><tspan id="SvgjsTspan1104" dy="16" x="530.212481689453"><tspan id="SvgjsTspan1105" style="text-decoration:;">宏任务回调推入Web APIs 等待时机</tspan></tspan></text></g><g id="SvgjsG1106" transform="translate(465.0124816894531,445.0124969482422)"><path id="SvgjsPath1107" d="M 0 0L 507 0L 507 40L 0 40Z" stroke="none" fill="none"></path><g id="SvgjsG1108"><text id="SvgjsText1109" font-family="微软雅黑" text-anchor="middle" font-size="14px" width="507px" fill="#323232" font-weight="400" align="middle" lineHeight="125%" anchor="middle" family="微软雅黑" size="14px" weight="400" font-style="" opacity="1" y="8.25" transform="rotate(0)"><tspan id="SvgjsTspan1110" dy="17" x="253.5"><tspan id="SvgjsTspan1111" style="text-decoration:;font-weight: bold;fill: rgb(183, 28, 28);">Event Loop （轮询宏任务队列, 队头 </tspan><tspan id="SvgjsTspan1112" style="text-decoration:;font-weight: bold;fill: rgb(183, 28, 28);text-decoration: underline;">单个</tspan><tspan id="SvgjsTspan1113" style="text-decoration:;font-weight: bold;fill: rgb(183, 28, 28);"> 出队推入 call stack, 开启新一轮）</tspan></tspan></text></g></g><g id="SvgjsG1114"><path id="SvgjsPath1115" d="M437.0124816894531 452.31249618530273L351.0124816894531 452.31249618530273L351.0124816894531 452.31249618530273L267.61248168945315 452.31249618530273" stroke="#323232" stroke-width="2" fill="none" marker-end="url(#SvgjsMarker1116)"></path></g><g id="SvgjsG1118"><path id="SvgjsPath1119" d="M264.0124816894531 182.8125L368.5124816894531 182.8125L368.5124816894531 182.8125L470.4124816894531 182.8125" stroke="#323232" stroke-width="2" fill="none" marker-end="url(#SvgjsMarker1120)"></path><rect id="SvgjsRect1122" width="164" height="16" x="286.41249084472656" y="161.8125" fill="#ffffff"></rect><text id="SvgjsText1123" font-family="微软雅黑" text-anchor="middle" font-size="13px" width="164px" fill="#323232" font-weight="400" align="top" lineHeight="16px" anchor="middle" family="微软雅黑" size="13px" weight="400" font-style="" opacity="1" y="159.1875" transform="rotate(0)"><tspan id="SvgjsTspan1124" dy="16" x="368.41249084472656"><tspan id="SvgjsTspan1125" style="text-decoration:;">call stack 清空立马依次执行</tspan></tspan></text></g><g id="SvgjsG1126"><path id="SvgjsPath1127" d="M604.0124816894531 183.0124969482422L657.7624816894531 183.0124969482422L657.7624816894531 183.0124969482422L708.9124816894531 183.0124969482422" stroke="#323232" stroke-width="2" fill="none" marker-end="url(#SvgjsMarker1128)"></path><rect id="SvgjsRect1130" width="91" height="16" x="609.5249816894532" y="162.0124969482422" fill="#ffffff"></rect><text id="SvgjsText1131" font-family="微软雅黑" text-anchor="middle" font-size="13px" width="91px" fill="#323232" font-weight="400" align="top" lineHeight="16px" anchor="middle" family="微软雅黑" size="13px" weight="400" font-style="" opacity="1" y="159.3874969482422" transform="rotate(0)"><tspan id="SvgjsTspan1132" dy="16" x="655.0249816894532"><tspan id="SvgjsTspan1133" style="text-decoration:;">微任务队列清空</tspan></tspan></text></g><g id="SvgjsG1134"><path id="SvgjsPath1135" d="M758.2624816894531 229.11249542236328L758.2624816894531 319.46249771118164L758.2624816894531 319.46249771118164L758.2624816894531 410.8125" stroke="#323232" stroke-width="2" fill="none" marker-end="url(#SvgjsMarker1136)"></path><rect id="SvgjsRect1138" width="99" height="16" x="708.7624816894532" y="311.9624977111817" fill="#ffffff"></rect><text id="SvgjsText1139" font-family="微软雅黑" text-anchor="middle" font-size="13px" width="99px" fill="#323232" font-weight="400" align="top" lineHeight="16px" anchor="middle" family="微软雅黑" size="13px" weight="400" font-style="" opacity="1" y="309.3374977111817" transform="rotate(0)"><tspan id="SvgjsTspan1140" dy="16" x="758.2624816894532"><tspan id="SvgjsTspan1141" style="text-decoration:;">触发 Event Loop</tspan></tspan></text></g><g id="SvgjsG1142"><path id="SvgjsPath1143" d="M918.5124816894531 286.0124969482422L918.5124816894531 349.4124984741211L918.5124816894531 349.4124984741211L918.5124816894531 410.2125" stroke-dasharray="3,3" stroke="#323232" stroke-width="2" fill="none" marker-end="url(#SvgjsMarker1144)"></path><rect id="SvgjsRect1146" width="156" height="16" x="840.5124816894531" y="340.1124984741211" fill="#ffffff"></rect><text id="SvgjsText1147" font-family="微软雅黑" text-anchor="middle" font-size="13px" width="156px" fill="#323232" font-weight="400" align="top" lineHeight="16px" anchor="middle" family="微软雅黑" size="13px" weight="400" font-style="" opacity="1" y="337.4874984741211" transform="rotate(0)"><tspan id="SvgjsTspan1148" dy="16" x="918.5124816894531"><tspan id="SvgjsTspan1149" style="text-decoration:;">时机成熟推送至宏任务队列</tspan></tspan></text></g><g id="SvgjsG1150" transform="translate(672.0124816894531,414.5124969482422)"><path id="SvgjsPath1151" d="M 0 0L 100 0L 100 40L 0 40Z" stroke="none" fill="none"></path><g id="SvgjsG1152"><text id="SvgjsText1153" font-family="微软雅黑" text-anchor="middle" font-size="13px" width="100px" fill="#323232" font-weight="400" align="middle" lineHeight="125%" anchor="middle" family="微软雅黑" size="13px" weight="400" font-style="" opacity="1" y="9.375" transform="rotate(0)"><tspan id="SvgjsTspan1154" dy="16" x="50"><tspan id="SvgjsTspan1155" style="text-decoration:;font-weight: bold;fill: rgb(183, 28, 28);">宏任务队列</tspan></tspan></text></g></g></svg>