<svg id="SvgjsSvg1346" width="1044.0124816894531" height="436" xmlns="http://www.w3.org/2000/svg" version="1.1" xmlns:xlink="http://www.w3.org/1999/xlink" xmlns:svgjs="http://svgjs.com/svgjs"><defs id="SvgjsDefs1347"><marker id="SvgjsMarker1378" markerWidth="14" markerHeight="10" refX="10" refY="5" viewBox="0 0 14 10" orient="auto" markerUnits="userSpaceOnUse" stroke-dasharray="0,0"><path id="SvgjsPath1379" d="M0,0 L14,5 L0,10 L0,0" fill="#323232" stroke="#323232" stroke-width="1"></path></marker><marker id="SvgjsMarker1382" markerWidth="14" markerHeight="10" refX="10" refY="5" viewBox="0 0 14 10" orient="auto" markerUnits="userSpaceOnUse" stroke-dasharray="0,0"><path id="SvgjsPath1383" d="M0,0 L14,5 L0,10 L0,0" fill="#323232" stroke="#323232" stroke-width="1"></path></marker><marker id="SvgjsMarker1386" markerWidth="14" markerHeight="10" refX="10" refY="5" viewBox="0 0 14 10" orient="auto" markerUnits="userSpaceOnUse" stroke-dasharray="0,0"><path id="SvgjsPath1387" d="M0,0 L14,5 L0,10 L0,0" fill="#323232" stroke="#323232" stroke-width="1"></path></marker><marker id="SvgjsMarker1444" markerWidth="14" markerHeight="10" refX="10" refY="5" viewBox="0 0 14 10" orient="auto" markerUnits="userSpaceOnUse" stroke-dasharray="0,0"><path id="SvgjsPath1445" d="M0,0 L14,5 L0,10 L0,0" fill="#323232" stroke="#323232" stroke-width="1"></path></marker><marker id="SvgjsMarker1448" markerWidth="14" markerHeight="10" refX="10" refY="5" viewBox="0 0 14 10" orient="auto" markerUnits="userSpaceOnUse" stroke-dasharray="0,0"><path id="SvgjsPath1449" d="M0,0 L14,5 L0,10 L0,0" fill="#323232" stroke="#323232" stroke-width="1"></path></marker><marker id="SvgjsMarker1452" markerWidth="14" markerHeight="10" refX="10" refY="5" viewBox="0 0 14 10" orient="auto" markerUnits="userSpaceOnUse" stroke-dasharray="0,0"><path id="SvgjsPath1453" d="M0,0 L14,5 L0,10 L0,0" fill="#323232" stroke="#323232" stroke-width="1"></path></marker><marker id="SvgjsMarker1456" markerWidth="14" markerHeight="10" refX="10" refY="5" viewBox="0 0 14 10" orient="auto" markerUnits="userSpaceOnUse" stroke-dasharray="0,0"><path id="SvgjsPath1457" d="M0,0 L14,5 L0,10 L0,0" fill="#323232" stroke="#323232" stroke-width="1"></path></marker></defs><g id="SvgjsG1348" transform="translate(25.012481689453125,25.012496948242188)"><path id="SvgjsPath1349" d="M 0 4Q 0 0 4 0L 470 0Q 474 0 474 4L 474 382Q 474 386 470 386L 4 386Q 0 386 0 382Z" stroke="rgba(255,205,210,1)" stroke-width="2" fill-opacity="1" fill="#ffcdd2"></path><g id="SvgjsG1350"><text id="SvgjsText1351" font-family="微软雅黑" text-anchor="middle" font-size="13px" width="454px" fill="#323232" font-weight="400" align="middle" lineHeight="125%" anchor="middle" family="微软雅黑" size="13px" weight="400" font-style="" opacity="1" y="182.375" transform="rotate(0)"></text></g></g><g id="SvgjsG1352" transform="translate(545.0124816894531,25.012496948242188)"><path id="SvgjsPath1353" d="M 0 4Q 0 0 4 0L 470 0Q 474 0 474 4L 474 382Q 474 386 470 386L 4 386Q 0 386 0 382Z" stroke="rgba(255,205,210,1)" stroke-width="2" fill-opacity="1" fill="#ffcdd2"></path><g id="SvgjsG1354"><text id="SvgjsText1355" font-family="微软雅黑" text-anchor="middle" font-size="13px" width="454px" fill="#323232" font-weight="400" align="middle" lineHeight="125%" anchor="middle" family="微软雅黑" size="13px" weight="400" font-style="" opacity="1" y="182.375" transform="rotate(0)"></text></g></g><g id="SvgjsG1356" transform="translate(179.01248168945312,106.11250495910645)"><path id="SvgjsPath1357" d="M 0 4Q 0 0 4 0L 25 0Q 29 0 29 4L 29 258.4000015258789Q 29 262.4000015258789 25 262.4000015258789L 4 262.4000015258789Q 0 262.4000015258789 0 258.4000015258789Z" stroke="rgba(33,41,48,1)" stroke-width="2" fill-opacity="1" fill="#ffffff"></path><g id="SvgjsG1358"><text id="SvgjsText1359" font-family="微软雅黑" text-anchor="middle" font-size="13px" width="9px" fill="#323232" font-weight="400" align="middle" lineHeight="125%" anchor="middle" family="微软雅黑" size="13px" weight="400" font-style="" opacity="1" y="120.57500076293945" transform="rotate(0)"></text></g></g><g id="SvgjsG1360" transform="translate(364.0124816894531,106.11250495910645)"><path id="SvgjsPath1361" d="M 0 4Q 0 0 4 0L 25 0Q 29 0 29 4L 29 258.4000015258789Q 29 262.4000015258789 25 262.4000015258789L 4 262.4000015258789Q 0 262.4000015258789 0 258.4000015258789Z" stroke="rgba(33,41,48,1)" stroke-width="2" fill-opacity="1" fill="#ffffff"></path><g id="SvgjsG1362"><text id="SvgjsText1363" font-family="微软雅黑" text-anchor="middle" font-size="13px" width="9px" fill="#323232" font-weight="400" align="middle" lineHeight="125%" anchor="middle" family="微软雅黑" size="13px" weight="400" font-style="" opacity="1" y="120.57500076293945" transform="rotate(0)"></text></g></g><g id="SvgjsG1364" transform="translate(143.01248168945312,66.11250495910645)"><path id="SvgjsPath1365" d="M 0 0L 100 0L 100 40L 0 40Z" stroke="none" fill="none"></path><g id="SvgjsG1366"><text id="SvgjsText1367" font-family="微软雅黑" text-anchor="middle" font-size="13px" width="100px" fill="#323232" font-weight="400" align="middle" lineHeight="125%" anchor="middle" family="微软雅黑" size="13px" weight="400" font-style="" opacity="1" y="9.375" transform="rotate(0)"><tspan id="SvgjsTspan1368" dy="16" x="50"><tspan id="SvgjsTspan1369" style="text-decoration:;font-weight: bold;">Client</tspan></tspan></text></g></g><g id="SvgjsG1370" transform="translate(330.0124816894531,66.11250495910645)"><path id="SvgjsPath1371" d="M 0 0L 100 0L 100 40L 0 40Z" stroke="none" fill="none"></path><g id="SvgjsG1372"><text id="SvgjsText1373" font-family="微软雅黑" text-anchor="middle" font-size="13px" width="100px" fill="#323232" font-weight="400" align="middle" lineHeight="125%" anchor="middle" family="微软雅黑" size="13px" weight="400" font-style="" opacity="1" y="9.375" transform="rotate(0)"><tspan id="SvgjsTspan1374" dy="16" x="50"><tspan id="SvgjsTspan1375" style="text-decoration:;font-weight: bold;">Server</tspan></tspan></text></g></g><g id="SvgjsG1376"><path id="SvgjsPath1377" d="M207.01248168945312 149.5124969482422L285.0124816894531 149.5124969482422L285.0124816894531 149.5124969482422L360.4124816894531 149.5124969482422" stroke="#323232" stroke-width="2" fill="none" marker-end="url(#SvgjsMarker1378)"></path></g><g id="SvgjsG1380"><path id="SvgjsPath1381" d="M363.0124816894531 237.3125057220459L286.0124816894531 237.3125057220459L286.0124816894531 237.3125057220459L211.61248168945312 237.3125057220459" stroke="#323232" stroke-width="2" fill="none" marker-end="url(#SvgjsMarker1382)"></path></g><g id="SvgjsG1384"><path id="SvgjsPath1385" d="M208.01248168945312 325.5124969482422L285.5124816894531 325.5124969482422L285.5124816894531 325.5124969482422L360.4124816894531 325.5124969482422" stroke="#323232" stroke-width="2" fill="none" marker-end="url(#SvgjsMarker1386)"></path></g><g id="SvgjsG1388" transform="translate(66.01248168945312,103.11250972747803)"><path id="SvgjsPath1389" d="M 0 0L 96 0L 96 268.39999198913574L 0 268.39999198913574Z" stroke="none" fill="none"></path><g id="SvgjsG1390"><text id="SvgjsText1391" font-family="微软雅黑" text-anchor="middle" font-size="13px" width="96px" fill="#323232" font-weight="400" align="middle" lineHeight="125%" anchor="middle" family="微软雅黑" size="13px" weight="400" font-style="" opacity="1" y="58.57499599456787" transform="rotate(0)"><tspan id="SvgjsTspan1392" dy="16" x="48"><tspan id="SvgjsTspan1393" style="text-decoration:;font-weight: bold;">对于客户端来说</tspan></tspan><tspan id="SvgjsTspan1394" dy="16" x="48"><tspan id="SvgjsTspan1395" style="text-decoration:;font-size: inherit; font-weight: bold;">第 2 步已经能确</tspan></tspan><tspan id="SvgjsTspan1396" dy="16" x="48"><tspan id="SvgjsTspan1397" style="text-decoration:;font-size: inherit; font-weight: bold;">保服务端有收发</tspan></tspan><tspan id="SvgjsTspan1398" dy="16" x="48"><tspan id="SvgjsTspan1399" style="text-decoration:;font-size: inherit; font-weight: bold;">能力了。</tspan></tspan><tspan id="SvgjsTspan1400" dy="16" x="48"><tspan id="SvgjsTspan1401" style="text-decoration:;font-weight: bold;">但是此时服务端</tspan></tspan><tspan id="SvgjsTspan1402" dy="16" x="48"><tspan id="SvgjsTspan1403" style="text-decoration:;font-weight: bold;">并不能确保客户</tspan></tspan><tspan id="SvgjsTspan1404" dy="16" x="48"><tspan id="SvgjsTspan1405" style="text-decoration:;font-weight: bold;">端有发送消息的</tspan></tspan><tspan id="SvgjsTspan1406" dy="16" x="48"><tspan id="SvgjsTspan1407" style="text-decoration:;font-weight: bold;">能力, 所以还需</tspan></tspan><tspan id="SvgjsTspan1408" dy="16" x="48"><tspan id="SvgjsTspan1409" style="text-decoration:;font-weight: bold;">要第 3 次握手。</tspan></tspan></text></g></g><g id="SvgjsG1410" transform="translate(591.0124816894531,103.11250972747803)"><path id="SvgjsPath1411" d="M 0 4Q 0 0 4 0L 25 0Q 29 0 29 4L 29 258.4000015258789Q 29 262.4000015258789 25 262.4000015258789L 4 262.4000015258789Q 0 262.4000015258789 0 258.4000015258789Z" stroke="rgba(33,41,48,1)" stroke-width="2" fill-opacity="1" fill="#ffffff"></path><g id="SvgjsG1412"><text id="SvgjsText1413" font-family="微软雅黑" text-anchor="middle" font-size="13px" width="9px" fill="#323232" font-weight="400" align="middle" lineHeight="125%" anchor="middle" family="微软雅黑" size="13px" weight="400" font-style="" opacity="1" y="120.57500076293945" transform="rotate(0)"></text></g></g><g id="SvgjsG1414" transform="translate(238.01248168945312,39.51249694824219)"><path id="SvgjsPath1415" d="M 0 0L 100 0L 100 40L 0 40Z" stroke="none" fill="none"></path><g id="SvgjsG1416"><text id="SvgjsText1417" font-family="微软雅黑" text-anchor="middle" font-size="16px" width="100px" fill="#323232" font-weight="400" align="middle" lineHeight="125%" anchor="middle" family="微软雅黑" size="16px" weight="400" font-style="" opacity="1" y="6" transform="rotate(0)"><tspan id="SvgjsTspan1418" dy="20" x="50"><tspan id="SvgjsTspan1419" style="text-decoration:;font-weight: bold;fill: rgb(211, 47, 47);">TCP 三次握手</tspan></tspan></text></g></g><g id="SvgjsG1420" transform="translate(646.0124816894531,39.51249694824219)"><path id="SvgjsPath1421" d="M 0 0L 100 0L 100 40L 0 40Z" stroke="none" fill="none"></path><g id="SvgjsG1422"><text id="SvgjsText1423" font-family="微软雅黑" text-anchor="middle" font-size="16px" width="100px" fill="#323232" font-weight="400" align="middle" lineHeight="125%" anchor="middle" family="微软雅黑" size="16px" weight="400" font-style="" opacity="1" y="6" transform="rotate(0)"><tspan id="SvgjsTspan1424" dy="20" x="50"><tspan id="SvgjsTspan1425" style="text-decoration:;font-weight: bold;fill: rgb(211, 47, 47);">TCP 四次挥手</tspan></tspan></text></g></g><g id="SvgjsG1426" transform="translate(556.0124816894531,63.11250972747803)"><path id="SvgjsPath1427" d="M 0 0L 100 0L 100 40L 0 40Z" stroke="none" fill="none"></path><g id="SvgjsG1428"><text id="SvgjsText1429" font-family="微软雅黑" text-anchor="middle" font-size="13px" width="100px" fill="#323232" font-weight="400" align="middle" lineHeight="125%" anchor="middle" family="微软雅黑" size="13px" weight="400" font-style="" opacity="1" y="9.375" transform="rotate(0)"><tspan id="SvgjsTspan1430" dy="16" x="50"><tspan id="SvgjsTspan1431" style="text-decoration:;font-weight: bold;">Client</tspan></tspan></text></g></g><g id="SvgjsG1432" transform="translate(770.0124816894531,103.11250972747803)"><path id="SvgjsPath1433" d="M 0 4Q 0 0 4 0L 25 0Q 29 0 29 4L 29 258.4000015258789Q 29 262.4000015258789 25 262.4000015258789L 4 262.4000015258789Q 0 262.4000015258789 0 258.4000015258789Z" stroke="rgba(33,41,48,1)" stroke-width="2" fill-opacity="1" fill="#ffffff"></path><g id="SvgjsG1434"><text id="SvgjsText1435" font-family="微软雅黑" text-anchor="middle" font-size="13px" width="9px" fill="#323232" font-weight="400" align="middle" lineHeight="125%" anchor="middle" family="微软雅黑" size="13px" weight="400" font-style="" opacity="1" y="120.57500076293945" transform="rotate(0)"></text></g></g><g id="SvgjsG1436" transform="translate(734.0124816894531,63.11250972747803)"><path id="SvgjsPath1437" d="M 0 0L 100 0L 100 40L 0 40Z" stroke="none" fill="none"></path><g id="SvgjsG1438"><text id="SvgjsText1439" font-family="微软雅黑" text-anchor="middle" font-size="13px" width="100px" fill="#323232" font-weight="400" align="middle" lineHeight="125%" anchor="middle" family="微软雅黑" size="13px" weight="400" font-style="" opacity="1" y="9.375" transform="rotate(0)"><tspan id="SvgjsTspan1440" dy="16" x="50"><tspan id="SvgjsTspan1441" style="text-decoration:;font-weight: bold;">Server</tspan></tspan></text></g></g><g id="SvgjsG1442"><path id="SvgjsPath1443" d="M621.0124816894531 144.5124969482422L695.0124816894531 144.5124969482422L695.0124816894531 144.5124969482422L766.4124816894531 144.5124969482422" stroke="#323232" stroke-width="2" fill="none" marker-end="url(#SvgjsMarker1444)"></path></g><g id="SvgjsG1446"><path id="SvgjsPath1447" d="M769.0124816894531 197.5124969482422L694.5124816894531 197.5124969482422L694.5124816894531 197.5124969482422L622.6124816894531 197.5124969482422" stroke="#323232" stroke-width="2" fill="none" marker-end="url(#SvgjsMarker1448)"></path></g><g id="SvgjsG1450"><path id="SvgjsPath1451" d="M769.0124816894531 280.5124969482422L695.0124816894531 280.5124969482422L695.0124816894531 280.5124969482422L623.6124816894531 280.5124969482422" stroke="#323232" stroke-width="2" fill="none" marker-end="url(#SvgjsMarker1452)"></path></g><g id="SvgjsG1454"><path id="SvgjsPath1455" d="M621.0124816894531 327.5124969482422L695.0124816894531 327.5124969482422L695.0124816894531 327.5124969482422L766.4124816894531 327.5124969482422" stroke="#323232" stroke-width="2" fill="none" marker-end="url(#SvgjsMarker1456)"></path></g><g id="SvgjsG1458" transform="translate(812.0124816894531,107.51250171661377)"><path id="SvgjsPath1459" d="M 0 0L 192 0L 192 253.60001754760742L 0 253.60001754760742Z" stroke="none" fill="none"></path><g id="SvgjsG1460"><text id="SvgjsText1461" font-family="微软雅黑" text-anchor="middle" font-size="13px" width="192px" fill="#323232" font-weight="400" align="middle" lineHeight="125%" anchor="middle" family="微软雅黑" size="13px" weight="400" font-style="" opacity="1" y="18.67500877380371" transform="rotate(0)"><tspan id="SvgjsTspan1462" dy="16" x="96"><tspan id="SvgjsTspan1463" style="text-decoration:;font-weight: bold;">1. 客户端告诉服务端已经没有了</tspan></tspan><tspan id="SvgjsTspan1464" dy="16" x="96"><tspan id="SvgjsTspan1465" style="text-decoration:;font-weight: bold;">请求, 可以关闭连接</tspan></tspan><tspan id="SvgjsTspan1466" dy="16" x="96"><tspan id="SvgjsTspan1467" style="text-decoration:;"> </tspan></tspan><tspan id="SvgjsTspan1468" dy="16" x="96"><tspan id="SvgjsTspan1469" style="text-decoration:;font-weight: bold;">2. 服务端收到消息, 告诉客户端 </tspan></tspan><tspan id="SvgjsTspan1470" dy="16" x="96"><tspan id="SvgjsTspan1471" style="text-decoration:;font-weight: bold;">OK, 但是等我确保处理完了所有</tspan></tspan><tspan id="SvgjsTspan1472" dy="16" x="96"><tspan id="SvgjsTspan1473" style="text-decoration:;font-weight: bold;">以前的请求, 把东西都给你了再说</tspan></tspan><tspan id="SvgjsTspan1474" dy="16" x="96"><tspan id="SvgjsTspan1475" style="text-decoration:;"> </tspan></tspan><tspan id="SvgjsTspan1476" dy="16" x="96"><tspan id="SvgjsTspan1477" style="text-decoration:;font-weight: bold;">3. 服务端处理完了所有请求后, </tspan></tspan><tspan id="SvgjsTspan1478" dy="16" x="96"><tspan id="SvgjsTspan1479" style="text-decoration:;font-weight: bold;">告诉客户端, 你可以关闭连接了</tspan></tspan><tspan id="SvgjsTspan1480" dy="16" x="96"><tspan id="SvgjsTspan1481" style="text-decoration:;"> </tspan></tspan><tspan id="SvgjsTspan1482" dy="16" x="96"><tspan id="SvgjsTspan1483" style="text-decoration:;font-weight: bold;">4. 客户端收到可以关闭的消息后, </tspan></tspan><tspan id="SvgjsTspan1484" dy="16" x="96"><tspan id="SvgjsTspan1485" style="text-decoration:;font-weight: bold;">通知服务端, 好，那我关了, 你也</tspan></tspan><tspan id="SvgjsTspan1486" dy="16" x="96"><tspan id="SvgjsTspan1487" style="text-decoration:;font-weight: bold;">关了吧</tspan></tspan></text></g></g><g id="SvgjsG1488" transform="translate(230.01248168945312,115.51249694824219)"><path id="SvgjsPath1489" d="M 0 0L 100 0L 100 40L 0 40Z" stroke="none" fill="none"></path><g id="SvgjsG1490"><text id="SvgjsText1491" font-family="微软雅黑" text-anchor="middle" font-size="13px" width="100px" fill="#323232" font-weight="400" align="middle" lineHeight="125%" anchor="middle" family="微软雅黑" size="13px" weight="400" font-style="" opacity="1" y="9.375" transform="rotate(0)"><tspan id="SvgjsTspan1492" dy="16" x="50"><tspan id="SvgjsTspan1493" style="text-decoration:;">1. SYN</tspan></tspan></text></g></g><g id="SvgjsG1494" transform="translate(236.01248168945312,203.0124969482422)"><path id="SvgjsPath1495" d="M 0 0L 100 0L 100 40L 0 40Z" stroke="none" fill="none"></path><g id="SvgjsG1496"><text id="SvgjsText1497" font-family="微软雅黑" text-anchor="middle" font-size="13px" width="100px" fill="#323232" font-weight="400" align="middle" lineHeight="125%" anchor="middle" family="微软雅黑" size="13px" weight="400" font-style="" opacity="1" y="9.375" transform="rotate(0)"><tspan id="SvgjsTspan1498" dy="16" x="50"><tspan id="SvgjsTspan1499" style="text-decoration:;">2. SYN+ ACK</tspan></tspan></text></g></g><g id="SvgjsG1500" transform="translate(230.01248168945312,294.5124969482422)"><path id="SvgjsPath1501" d="M 0 0L 100 0L 100 40L 0 40Z" stroke="none" fill="none"></path><g id="SvgjsG1502"><text id="SvgjsText1503" font-family="微软雅黑" text-anchor="middle" font-size="13px" width="100px" fill="#323232" font-weight="400" align="middle" lineHeight="125%" anchor="middle" family="微软雅黑" size="13px" weight="400" font-style="" opacity="1" y="9.375" transform="rotate(0)"><tspan id="SvgjsTspan1504" dy="16" x="50"><tspan id="SvgjsTspan1505" style="text-decoration:;">3. ACK</tspan></tspan></text></g></g><g id="SvgjsG1506" transform="translate(645.0124816894531,294.5124969482422)"><path id="SvgjsPath1507" d="M 0 0L 100 0L 100 40L 0 40Z" stroke="none" fill="none"></path><g id="SvgjsG1508"><text id="SvgjsText1509" font-family="微软雅黑" text-anchor="middle" font-size="13px" width="100px" fill="#323232" font-weight="400" align="middle" lineHeight="125%" anchor="middle" family="微软雅黑" size="13px" weight="400" font-style="" opacity="1" y="9.375" transform="rotate(0)"><tspan id="SvgjsTspan1510" dy="16" x="50"><tspan id="SvgjsTspan1511" style="text-decoration:;">4. ACK</tspan></tspan></text></g></g><g id="SvgjsG1512" transform="translate(641.0124816894531,107.51250171661377)"><path id="SvgjsPath1513" d="M 0 0L 100 0L 100 40L 0 40Z" stroke="none" fill="none"></path><g id="SvgjsG1514"><text id="SvgjsText1515" font-family="微软雅黑" text-anchor="middle" font-size="13px" width="100px" fill="#323232" font-weight="400" align="middle" lineHeight="125%" anchor="middle" family="微软雅黑" size="13px" weight="400" font-style="" opacity="1" y="9.375" transform="rotate(0)"><tspan id="SvgjsTspan1516" dy="16" x="50"><tspan id="SvgjsTspan1517" style="text-decoration:;">1. FIN</tspan></tspan></text></g></g><g id="SvgjsG1518" transform="translate(645.0124816894531,247.5124969482422)"><path id="SvgjsPath1519" d="M 0 0L 100 0L 100 40L 0 40Z" stroke="none" fill="none"></path><g id="SvgjsG1520"><text id="SvgjsText1521" font-family="微软雅黑" text-anchor="middle" font-size="13px" width="100px" fill="#323232" font-weight="400" align="middle" lineHeight="125%" anchor="middle" family="微软雅黑" size="13px" weight="400" font-style="" opacity="1" y="9.375" transform="rotate(0)"><tspan id="SvgjsTspan1522" dy="16" x="50"><tspan id="SvgjsTspan1523" style="text-decoration:;">3. FIN</tspan></tspan></text></g></g><g id="SvgjsG1524" transform="translate(645.0124816894531,163.0124969482422)"><path id="SvgjsPath1525" d="M 0 0L 100 0L 100 40L 0 40Z" stroke="none" fill="none"></path><g id="SvgjsG1526"><text id="SvgjsText1527" font-family="微软雅黑" text-anchor="middle" font-size="13px" width="100px" fill="#323232" font-weight="400" align="middle" lineHeight="125%" anchor="middle" family="微软雅黑" size="13px" weight="400" font-style="" opacity="1" y="9.375" transform="rotate(0)"><tspan id="SvgjsTspan1528" dy="16" x="50"><tspan id="SvgjsTspan1529" style="text-decoration:;">2. ACK</tspan></tspan></text></g></g></svg>